<?xml version="1.0" encoding="UTF-8" standalone="no"?>
<!-- Created with Inkscape (http://www.inkscape.org/) -->

<svg
   xmlns:dc="http://purl.org/dc/elements/1.1/"
   xmlns:cc="http://creativecommons.org/ns#"
   xmlns:rdf="http://www.w3.org/1999/02/22-rdf-syntax-ns#"
   xmlns:svg="http://www.w3.org/2000/svg"
   xmlns="http://www.w3.org/2000/svg"
   xmlns:sodipodi="http://sodipodi.sourceforge.net/DTD/sodipodi-0.dtd"
   xmlns:inkscape="http://www.inkscape.org/namespaces/inkscape"
   width="82.54319"
   height="90.556465"
   viewBox="0 0 82.543191 90.556467"
   id="svg5652"
   version="1.1"
   inkscape:version="0.91 r13725"
   sodipodi:docname="Clustertrigo90.svg">
  <defs
     id="defs5654">
    <inkscape:path-effect
       effect="spiro"
       id="path-effect6570"
       is_visible="true" />
    <inkscape:path-effect
       effect="spiro"
       id="path-effect6566"
       is_visible="true" />
  </defs>
  <sodipodi:namedview
     id="base"
     pagecolor="#ffffff"
     bordercolor="#666666"
     borderopacity="1.0"
     inkscape:pageopacity="0.0"
     inkscape:pageshadow="2"
     inkscape:zoom="2.7054945"
     inkscape:cx="68.392929"
     inkscape:cy="15.523971"
     inkscape:document-units="px"
     inkscape:current-layer="layer1"
     showgrid="false"
     units="px"
     inkscape:snap-nodes="false"
     inkscape:snap-bbox="true"
     inkscape:snap-global="true"
     showguides="true"
     inkscape:guide-bbox="true"
     inkscape:window-width="1920"
     inkscape:window-height="1017"
     inkscape:window-x="-8"
     inkscape:window-y="-8"
     inkscape:window-maximized="1"
     inkscape:showpageshadow="false"
     fit-margin-top="0"
     fit-margin-left="0"
     fit-margin-right="0"
     fit-margin-bottom="0" />
  <metadata
     id="metadata5657">
    <rdf:RDF>
      <cc:Work
         rdf:about="">
        <dc:format>image/svg+xml</dc:format>
        <dc:type
           rdf:resource="http://purl.org/dc/dcmitype/StillImage" />
        <dc:title></dc:title>
      </cc:Work>
    </rdf:RDF>
  </metadata>
  <g
     inkscape:groupmode="layer"
     id="layer6"
     inkscape:label="Circulo Grande"
     style="display:inline;opacity:1"
     transform="translate(-6.2378026,-17.588718)">
    <path
       style="fill:#e0e5e3;fill-opacity:0.92156863;fill-rule:evenodd;stroke:#000000;stroke-width:1px;stroke-linecap:butt;stroke-linejoin:miter;stroke-opacity:1"
       d=""
       id="path6568"
       inkscape:path-effect="#path-effect6570"
       inkscape:original-d="M 149.99503,130.02921 Z"
       inkscape:connector-curvature="0" />
  </g>
  <g
     inkscape:groupmode="layer"
     id="layer3"
     inkscape:label="Estrellas"
     style="display:inline;opacity:0.75"
     transform="translate(-6.2378026,-17.588718)" />
  <g
     inkscape:groupmode="layer"
     id="layer4"
     inkscape:label="Medialuna"
     style="display:inline;opacity:0.95999995"
     transform="translate(-6.2378026,-17.588718)" />
  <g
     inkscape:groupmode="layer"
     id="layer7"
     inkscape:label="Letra C"
     style="display:inline"
     transform="translate(-6.2378026,-17.588718)" />
  <g
     inkscape:groupmode="layer"
     id="layer8"
     inkscape:label="Letra L"
     transform="translate(-6.2378026,-17.588718)" />
  <g
     inkscape:groupmode="layer"
     id="layer9"
     inkscape:label="Letra U"
     transform="translate(-6.2378026,-17.588718)" />
  <g
     inkscape:groupmode="layer"
     id="layer10"
     inkscape:label="Letra S"
     transform="translate(-6.2378026,-17.588718)" />
  <g
     inkscape:groupmode="layer"
     id="layer11"
     inkscape:label="Letra T"
     transform="translate(-6.2378026,-17.588718)" />
  <g
     inkscape:groupmode="layer"
     id="layer12"
     inkscape:label="Letra E"
     style="display:inline"
     transform="translate(-6.2378026,-17.588718)" />
  <g
     inkscape:groupmode="layer"
     id="layer13"
     inkscape:label="Letra R"
     style="display:inline"
     transform="translate(-6.2378026,-17.588718)" />
  <g
     inkscape:groupmode="layer"
     id="layer1"
     inkscape:label="Cuadrado"
     transform="translate(-6.2378026,112.41128)">
    <g
       id="g4163"
       transform="matrix(0.60344829,0,0,0.60344829,2.4736113,-44.576885)">
      <g
         inkscape:export-ydpi="90"
         inkscape:export-xdpi="90"
         style="fill:#f5deb3"
         transform="matrix(1.0499069,0,0,1.0499069,-22.485658,-100.74043)"
         id="g4204">
        <g
           style="fill:#f5deb3"
           id="g4544"
           transform="translate(9.3281066,-14.847397)">
          <g
             transform="translate(-59.416293,-67.356319)"
             id="g4178"
             style="fill:#f5deb3">
            <path
               style="display:inline;opacity:1;fill:#f5deb3;fill-rule:evenodd;stroke:none;stroke-width:1px;stroke-linecap:butt;stroke-linejoin:miter;stroke-opacity:1"
               d="M 151.91016,85.886719 C 132.4496,85.785738 117.3041,100.82278 117.17969,120.2832 c -0.0207,5.03471 0.74976,8.8319 2.81445,13.42383 0.37117,-0.9715 1.209,-1.4264 1.85156,-2.24414 -1.26809,-3.45022 -1.81855,-6.74604 -1.80078,-10.42187 0.10895,-16.99732 14.38537,-31.125512 31.38281,-31.037114 1.48534,-5.35e-4 2.45006,0.12369 3.26368,0.183594 0.006,-0.0042 0.043,-0.07007 0.0488,-0.07422 -0.014,-0.146072 0.01,-0.323965 0.01,-0.470703 0.13759,-1.322312 0.79461,-2.511619 1.69531,-3.554687 -0.15524,-0.01515 -0.29692,-0.03336 -0.47265,-0.04492 z m 20.03711,6.849609 c -0.0181,0.07135 -0.0356,0.142375 -0.0566,0.212891 -0.002,0.05141 -0.0136,0.103709 -0.004,0.154297 0.003,0.01437 0.009,0.01957 0.0117,0.0332 0.0179,-0.148343 0.0346,-0.279531 0.0488,-0.400391 z m 0.79492,0.357422 c 0.0283,0.0964 0.0447,0.178262 0.0625,0.263672 0.0494,-0.02859 0.0734,-0.04633 0.12695,-0.07422 0.002,-0.01282 0.005,-0.02162 0.008,-0.03516 z m -6.73633,0.519531 c -0.004,0.005 5e-5,0.0058 -0.002,0.0098 0.001,-0.003 0.003,-0.0068 0.004,-0.0098 z m 11.86133,10.900389 c 0.004,0.003 0.006,0.007 0.01,0.01 10e-4,-10e-4 7.7e-4,-0.003 0.002,-0.004 -0.004,-0.002 -0.008,-0.004 -0.0117,-0.006 z m 1.47851,2.93555 c -0.0481,0.009 -0.075,0.0188 -0.12695,0.0273 0.0366,0.0752 0.0675,0.15302 0.10352,0.22852 1.3e-4,-0.0435 0.0137,-0.14695 0.0234,-0.25586 z m 3.71094,4.35156 c 0.003,0.0448 0.003,0.0901 0.008,0.13477 0.002,0.0214 0.0163,0.0383 0.0234,0.0586 0.0139,0.0399 0.0311,0.11232 0.041,0.16211 -0.006,-0.0456 -0.0153,-0.0913 -0.0117,-0.13672 0.005,-0.0672 0.14631,0.17308 0.0332,-0.0508 -0.0289,-0.0572 -0.0615,-0.11252 -0.0937,-0.16797 z m 0.082,0.46875 c 0.0173,0.17424 0.0229,0.21969 0.004,0.41016 0.007,0.007 0.003,0.006 0.01,0.0117 9.5e-4,-0.12042 0.004,-0.18973 -0.008,-0.36329 -0.001,-0.0195 -0.003,-0.039 -0.006,-0.0586 z m -1.5,11.33985 0,0.25781 0,0.17383 c 0.004,-0.11089 0.003,-0.22299 0.0215,-0.33008 0.004,0.0247 0.003,0.0508 0.0117,0.0742 0.006,0.0163 9e-5,-0.0356 -0.004,-0.0527 -0.009,-0.0413 -0.0188,-0.0821 -0.0293,-0.12304 z m -2.12109,2.88671 -0.006,0.0137 c 0.002,0.0138 0.004,0.0273 0.006,0.041 z m -45.11524,20.81446 c -0.98363,0.49449 -1.35238,1.14126 -2.4414,1.30273 5.99316,4.46073 12.74808,6.46548 20.21875,6.53711 3.52643,0.0261 6.78684,-0.72691 10.16406,-1.74219 -1.0159,-0.94381 -1.36483,-1.65917 -1.71094,-3.00195 -3.22644,1.09532 -6.11226,1.64775 -9.51953,1.63477 -5.62041,-0.0559 -11.93089,-1.77357 -16.71094,-4.73047 z"
               id="path6212"
               inkscape:connector-curvature="0"
               sodipodi:nodetypes="cccccccccccccccccccccccccccccccccccccccccccccccccccccccccccccccc" />
            <path
               style="opacity:1;fill:#f5deb3;fill-rule:evenodd;stroke:none;stroke-width:1px;stroke-linecap:butt;stroke-linejoin:miter;stroke-opacity:1"
               d="m 170.62791,91.66345 c -0.17081,1.444738 -0.55341,2.700791 -1.1654,4.051855 6.01329,4.886325 12.57782,15.028765 12.70349,24.425315 l 0.002,1.7754 c -0.0612,8.5334 -4.17818,16.2978 -9.34854,21.29876 0.41806,0.42515 0.72949,1.12905 0.98049,1.7604 0.251,0.63136 0.44156,1.19018 0.61787,1.32517 2.31595,-2.33787 3.80528,-3.81051 5.18766,-5.69498 1.38239,-1.88447 2.63574,-3.76093 3.68952,-5.95625 2.10754,-4.39065 3.32839,-10.32194 3.00967,-15.19404 -0.16075,-11.89171 -7.45098,-22.726335 -15.42266,-27.659048 z m 0.81154,56.48308 c -0.0432,0.0244 -0.0705,0.0516 -0.0996,0.0781 l 0,0.0117 c 0.0354,-0.0302 0.0362,-0.0311 0.0996,-0.0899 z"
               id="path6582"
               inkscape:connector-curvature="0"
               sodipodi:nodetypes="cccccscsscccccccc" />
          </g>
          <path
             style="display:inline;opacity:1;fill:#f5deb3;fill-rule:evenodd;stroke:none;stroke-width:1px;stroke-linecap:butt;stroke-linejoin:miter;stroke-opacity:1"
             id="path6339"
             sodipodi:type="arc"
             sodipodi:cx="68.571152"
             sodipodi:cy="72.049232"
             sodipodi:rx="6.125"
             sodipodi:ry="6.125"
             sodipodi:start="0.0087266463"
             sodipodi:end="0.0040357248"
             sodipodi:open="true"
             d="m 74.695919,72.102683 a 6.125,6.125 0 0 1 -6.171035,6.071375 6.125,6.125 0 0 1 -6.078608,-6.16391 6.125,6.125 0 0 1 6.156777,-6.085832 6.125,6.125 0 0 1 6.093049,6.149635" />
          <path
             d="m 33.391057,90.721872 a 4.4100413,4.4100413 0 0 1 -4.443186,4.371431 4.4100413,4.4100413 0 0 1 -4.376639,-4.438056 4.4100413,4.4100413 0 0 1 4.432921,-4.381841 4.4100413,4.4100413 0 0 1 4.387036,4.427779"
             sodipodi:open="true"
             sodipodi:end="0.0040357248"
             sodipodi:start="0.0087266463"
             sodipodi:ry="4.4100413"
             sodipodi:rx="4.4100413"
             sodipodi:cy="90.683388"
             sodipodi:cx="28.981184"
             sodipodi:type="arc"
             id="path6341"
             style="display:inline;opacity:1;fill:#f5deb3;fill-rule:evenodd;stroke:none;stroke-width:1px;stroke-linecap:butt;stroke-linejoin:miter;stroke-opacity:1" />
          <path
             style="display:inline;opacity:1;fill:#f5deb3;fill-rule:evenodd;stroke:none;stroke-width:1px;stroke-linecap:butt;stroke-linejoin:miter;stroke-opacity:1"
             id="path6343"
             sodipodi:type="arc"
             sodipodi:cx="91.086655"
             sodipodi:cy="6.0629773"
             sodipodi:rx="2.3316603"
             sodipodi:ry="2.3316603"
             sodipodi:start="0.0087266463"
             sodipodi:end="0.0040357248"
             sodipodi:open="true"
             d="m 93.418226,6.0833246 a 2.3316603,2.3316603 0 0 1 -2.349184,2.3112465 2.3316603,2.3316603 0 0 1 -2.314,-2.3464724 2.3316603,2.3316603 0 0 1 2.343757,-2.31675 2.3316603,2.3316603 0 0 1 2.319497,2.3410385" />
          <path
             d="m 141.77251,48.419531 a 3.625,3.625 0 0 1 -3.65225,3.593263 3.625,3.625 0 0 1 -3.59754,-3.648028 3.625,3.625 0 0 1 3.6438,-3.601819 3.625,3.625 0 0 1 3.60609,3.63958"
             sodipodi:open="true"
             sodipodi:end="0.0040357248"
             sodipodi:start="0.0087266463"
             sodipodi:ry="3.625"
             sodipodi:rx="3.625"
             sodipodi:cy="48.387897"
             sodipodi:cx="138.14764"
             sodipodi:type="arc"
             id="path6347"
             style="display:inline;opacity:1;fill:#f5deb3;fill-rule:evenodd;stroke:none;stroke-width:1px;stroke-linecap:butt;stroke-linejoin:miter;stroke-opacity:1" />
          <path
             style="display:inline;opacity:1;fill:#f5deb3;fill-rule:evenodd;stroke:none;stroke-width:1px;stroke-linecap:butt;stroke-linejoin:miter;stroke-opacity:1"
             id="path6349"
             sodipodi:type="arc"
             sodipodi:cx="99.93425"
             sodipodi:cy="47.505322"
             sodipodi:rx="4.0625"
             sodipodi:ry="4.0625"
             sodipodi:start="0.0087266463"
             sodipodi:end="0.0040357248"
             sodipodi:open="true"
             d="m 103.9966,47.540773 a 4.0625,4.0625 0 0 1 -4.093038,4.026933 4.0625,4.0625 0 0 1 -4.031729,-4.088308 4.0625,4.0625 0 0 1 4.083576,-4.036521 4.0625,4.0625 0 0 1 4.041311,4.07884" />
          <path
             style="display:inline;opacity:1;fill:#f5deb3;fill-rule:evenodd;stroke:none;stroke-width:1px;stroke-linecap:butt;stroke-linejoin:miter;stroke-opacity:1"
             id="path6351"
             sodipodi:type="arc"
             sodipodi:cx="103.13965"
             sodipodi:cy="23.60355"
             sodipodi:rx="4.53125"
             sodipodi:ry="4.53125"
             sodipodi:start="0.0087266463"
             sodipodi:end="0.0040357248"
             sodipodi:open="true"
             d="m 107.67073,23.643092 a 4.53125,4.53125 0 0 1 -4.56531,4.491579 4.53125,4.53125 0 0 1 -4.496929,-4.560036 4.53125,4.53125 0 0 1 4.554759,-4.502274 4.53125,4.53125 0 0 1 4.50761,4.549476" />
          <path
             d="m 116.44947,9.5208242 a 2.3316603,2.3316603 0 0 1 -2.34919,2.3112468 2.3316603,2.3316603 0 0 1 -2.314,-2.3464728 2.3316603,2.3316603 0 0 1 2.34376,-2.31675 2.3316603,2.3316603 0 0 1 2.3195,2.3410386"
             sodipodi:open="true"
             sodipodi:end="0.0040357248"
             sodipodi:start="0.0087266463"
             sodipodi:ry="2.3316603"
             sodipodi:rx="2.3316603"
             sodipodi:cy="9.5004768"
             sodipodi:cx="114.1179"
             sodipodi:type="arc"
             id="path6353"
             style="display:inline;opacity:1;fill:#f5deb3;fill-rule:evenodd;stroke:none;stroke-width:1px;stroke-linecap:butt;stroke-linejoin:miter;stroke-opacity:1" />
          <path
             style="display:inline;opacity:1;fill:#f5deb3;fill-rule:evenodd;stroke:none;stroke-width:1px;stroke-linecap:butt;stroke-linejoin:miter;stroke-opacity:1"
             id="path6355"
             sodipodi:type="arc"
             sodipodi:cx="131.67058"
             sodipodi:cy="26.912983"
             sodipodi:rx="2.3316603"
             sodipodi:ry="2.3316603"
             sodipodi:start="0.0087266463"
             sodipodi:end="0.0040357248"
             sodipodi:open="true"
             d="m 134.00215,26.93333 a 2.3316603,2.3316603 0 0 1 -2.34918,2.311247 2.3316603,2.3316603 0 0 1 -2.314,-2.346473 2.3316603,2.3316603 0 0 1 2.34375,-2.31675 2.3316603,2.3316603 0 0 1 2.3195,2.341039" />
          <path
             style="display:inline;opacity:1;fill:#f5deb3;fill-rule:evenodd;stroke:none;stroke-width:1px;stroke-linecap:butt;stroke-linejoin:miter;stroke-opacity:1"
             id="path6357"
             sodipodi:type="arc"
             sodipodi:cx="107.64764"
             sodipodi:cy="80.450417"
             sodipodi:rx="3.625"
             sodipodi:ry="3.625"
             sodipodi:start="0.0087266463"
             sodipodi:end="0.0040357248"
             sodipodi:open="true"
             d="m 111.2725,80.48205 a 3.625,3.625 0 0 1 -3.65225,3.593263 3.625,3.625 0 0 1 -3.59754,-3.648028 3.625,3.625 0 0 1 3.64381,-3.601819 3.625,3.625 0 0 1 3.60609,3.63958" />
          <path
             inkscape:connector-curvature="0"
             id="path6372"
             d="M 63.257537,12.889775 A 50.381363,50.292969 0 0 0 41.525117,53.866341 50.381363,50.292969 0 0 0 91.523157,104.47962 50.381363,50.292969 0 0 0 141.29074,63.995241 49.194173,49.063653 0 0 1 93.462617,100.36829 49.194173,49.063653 0 0 1 44.642297,50.993291 49.194173,49.063653 0 0 1 63.257537,12.889775 Z"
             style="display:inline;opacity:1;fill:#f5deb3;fill-rule:evenodd;stroke:none;stroke-width:1px;stroke-linecap:butt;stroke-linejoin:miter;stroke-opacity:1" />
        </g>
        <text
           xml:space="preserve"
           style="font-style:normal;font-variant:normal;font-weight:100;font-stretch:normal;font-size:29.98303795px;line-height:125%;font-family:HelvLight;-inkscape-font-specification:'HelvLight, Thin';text-align:start;letter-spacing:0px;word-spacing:0px;writing-mode:lr-tb;text-anchor:start;fill:#f5deb3;fill-opacity:1;stroke:none;stroke-width:1px;stroke-linecap:butt;stroke-linejoin:miter;stroke-opacity:1"
           x="25.918917"
           y="131.24596"
           id="text4482"
           sodipodi:linespacing="125%"><tspan
             sodipodi:role="line"
             id="tspan4484"
             x="25.918917"
             y="131.24596">CLUSTER</tspan></text>
      </g>
    </g>
  </g>
</svg>
