<?xml version="1.0" encoding="UTF-8" standalone="no"?>
<!-- Created with Inkscape (http://www.inkscape.org/) -->

<svg
   xmlns:dc="http://purl.org/dc/elements/1.1/"
   xmlns:cc="http://creativecommons.org/ns#"
   xmlns:rdf="http://www.w3.org/1999/02/22-rdf-syntax-ns#"
   xmlns:svg="http://www.w3.org/2000/svg"
   xmlns="http://www.w3.org/2000/svg"
   xmlns:sodipodi="http://sodipodi.sourceforge.net/DTD/sodipodi-0.dtd"
   xmlns:inkscape="http://www.inkscape.org/namespaces/inkscape"
   id="svg4136"
   version="1.1"
   inkscape:version="0.91 r13725"
   width="150.07001"
   height="52.276382"
   viewBox="0 0 150.07001 52.276382"
   sodipodi:docname="Ercillatrigo2150.svg">
  <metadata
     id="metadata4142">
    <rdf:RDF>
      <cc:Work
         rdf:about="">
        <dc:format>image/svg+xml</dc:format>
        <dc:type
           rdf:resource="http://purl.org/dc/dcmitype/StillImage" />
        <dc:title></dc:title>
      </cc:Work>
    </rdf:RDF>
  </metadata>
  <defs
     id="defs4140" />
  <sodipodi:namedview
     pagecolor="#ffffff"
     bordercolor="#666666"
     borderopacity="1"
     objecttolerance="10"
     gridtolerance="10"
     guidetolerance="10"
     inkscape:pageopacity="0"
     inkscape:pageshadow="2"
     inkscape:window-width="1920"
     inkscape:window-height="1017"
     id="namedview4138"
     showgrid="false"
     inkscape:showpageshadow="false"
     inkscape:zoom="0.44622585"
     inkscape:cx="773.70929"
     inkscape:cy="168.86203"
     inkscape:window-x="-8"
     inkscape:window-y="-8"
     inkscape:window-maximized="1"
     inkscape:current-layer="svg4136"
     showguides="true"
     inkscape:guide-bbox="true"
     fit-margin-top="0"
     fit-margin-left="0"
     fit-margin-right="0"
     fit-margin-bottom="0" />
  <g
     inkscape:groupmode="layer"
     id="layer1"
     inkscape:label="Ercilla"
     style="display:inline;opacity:1"
     transform="translate(-4.9948813,-508.14862)" />
  <g
     id="g4176"
     style="opacity:1;fill:#f5deb3"
     transform="matrix(0.30012739,0,0,0.30012739,-1.4991006,-0.87281585)"
     inkscape:export-xdpi="90"
     inkscape:export-ydpi="90">
    <g
       style="opacity:0.65;fill:#f5deb3;fill-opacity:1;stroke:none"
       transform="matrix(1.4906408,0,0,1.4912086,-296.80908,-334.7279)"
       id="g4769">
      <path
         style="fill:#f5deb3;fill-opacity:1;fill-rule:evenodd;stroke:none;stroke-width:0.13414495;stroke-linecap:butt;stroke-linejoin:miter;stroke-miterlimit:4;stroke-dasharray:none;stroke-opacity:1"
         d="m 263.85881,226.41772 c -24.73679,20.8961 -29.46243,42.74436 -21.16095,64.52785 -18.86244,-17.83463 -19.43894,-37.58511 -8.35989,-58.25794 z"
         id="path4701"
         inkscape:connector-curvature="0"
         sodipodi:nodetypes="cccc" />
      <path
         style="fill:#f5deb3;fill-opacity:1;fill-rule:evenodd;stroke:none;stroke-width:0.13414495;stroke-linecap:butt;stroke-linejoin:miter;stroke-miterlimit:4;stroke-dasharray:none;stroke-opacity:1"
         d="m 213.43827,255.41607 c 11.29153,35.4972 32.89241,53.20092 61.59346,58.05736 -26.91353,7.32276 -51.22426,-2.51417 -72.56581,-27.23029 z"
         id="path4703"
         inkscape:connector-curvature="0"
         sodipodi:nodetypes="cccc" />
      <path
         style="fill:#f5deb3;fill-opacity:1;fill-rule:evenodd;stroke:none;stroke-width:0.13414495;stroke-linecap:butt;stroke-linejoin:miter;stroke-miterlimit:4;stroke-dasharray:none;stroke-opacity:1"
         d="m 227.28432,314.98023 c 24.77553,16.16799 43.31439,14.40504 58.36615,4.17995 -17.40329,27.90001 -55.24835,31.15451 -75.23895,11.75608 z"
         id="path4705"
         inkscape:connector-curvature="0"
         sodipodi:nodetypes="cccc" />
      <path
         style="fill:#f5deb3;fill-opacity:1;fill-rule:evenodd;stroke:none;stroke-width:0.13414495;stroke-linecap:butt;stroke-linejoin:miter;stroke-miterlimit:4;stroke-dasharray:none;stroke-opacity:1"
         d="m 291.55093,245.35808 4.57181,0 -0.13063,17.76475 -4.44118,0 z"
         id="path4707"
         inkscape:connector-curvature="0"
         sodipodi:nodetypes="ccccc" />
      <path
         style="fill:#f5deb3;fill-opacity:1;fill-rule:evenodd;stroke:none;stroke-width:0.13414495;stroke-linecap:butt;stroke-linejoin:miter;stroke-miterlimit:4;stroke-dasharray:none;stroke-opacity:1"
         d="m 298.08208,245.48871 6.40053,-1e-5 6.26992,13.32357 6.40054,-13.19294 6.13929,-0.13062 0.0462,17.5035 -4.49495,0 0.1382,-13.58481 -5.35555,13.45419 -4.96368,0.13062 -5.87804,-13.32356 0.13062,13.19294 -4.70243,0.13062 z"
         id="path4709"
         inkscape:connector-curvature="0"
         sodipodi:nodetypes="cccccccccccccc" />
      <path
         id="path4711"
         transform="matrix(0.67085243,0,0,0.67059699,199.11509,224.46752)"
         d="m 189.54688,31.140625 0.0918,26.296875 6.75781,-0.03516 0,-9.302735 c 9.70282,-0.08172 15.96823,-0.229519 16.16602,-0.203125 10.08761,-2.424899 6.66428,-15.811822 -2.37305,-16.74414 l -20.64257,-0.01172 z m 7.125,5.041016 10.82421,0.03516 c 5.7695,0.159365 4.83066,6.888321 1.35938,7.580078 l -12.06836,0.01563 -0.11523,-7.630859 z"
         style="fill:#f5deb3;fill-opacity:1;fill-rule:evenodd;stroke:none;stroke-width:0.20000002;stroke-linecap:butt;stroke-linejoin:miter;stroke-miterlimit:4;stroke-dasharray:none;stroke-opacity:1"
         inkscape:connector-curvature="0" />
      <path
         id="path4715"
         transform="matrix(0.67085243,0,0,0.67059699,199.11509,224.46752)"
         d="m 221.51562,31.152344 -0.39062,26.101562 7.00977,0 0,-10.128906 7.39843,0 7.59571,10.128906 7.78711,0.195313 -7.39844,-10.908203 c 2.69019,-1.237122 6.45313,-2.742214 6.81445,-7.150391 -0.0649,-4.480083 -2.6736,-7.720071 -8.61914,-8.238281 l -20.19727,0 z m 7.08985,4.707031 c 7.03788,-0.03818 10.71832,0.04554 11.47656,0.0078 4.02276,0.567479 3.87632,6.03797 0.0801,6.625 -0.49641,0.02669 -6.41159,-0.06726 -11.63672,-0.04102 l 0.0801,-6.591797 z"
         style="fill:#f5deb3;fill-opacity:1;fill-rule:evenodd;stroke:none;stroke-width:0.20000002;stroke-linecap:butt;stroke-linejoin:miter;stroke-miterlimit:4;stroke-dasharray:none;stroke-opacity:1"
         inkscape:connector-curvature="0" />
      <path
         style="fill:#f5deb3;fill-opacity:1;fill-rule:evenodd;stroke:none;stroke-width:0.13414495;stroke-linecap:butt;stroke-linejoin:miter;stroke-miterlimit:4;stroke-dasharray:none;stroke-opacity:1"
         d="m 386.90584,245.48871 -9.79674,0 c -6.28282,0.63972 -8.64927,4.02091 -7.96801,9.53549 0.70212,5.07998 3.17795,7.27768 6.66178,7.83739 l 10.98109,0.01 0.0999,-2.92751 -9.12169,0.0439 c -2.79275,-0.18845 -3.29697,-2.47809 -3.78808,-4.31057 l 12.83175,-0.0538 -0.0231,-3.02737 -12.28616,0.20745 c 0.25512,-3.40999 1.7714,-3.98235 3.3962,-4.31056 l 8.96682,-0.0308 z"
         id="path4719"
         inkscape:connector-curvature="0"
         sodipodi:nodetypes="cccccccccccccc" />
      <path
         style="fill:#f5deb3;fill-opacity:1;fill-rule:evenodd;stroke:none;stroke-width:0.13414495;stroke-linecap:butt;stroke-linejoin:miter;stroke-miterlimit:4;stroke-dasharray:none;stroke-opacity:1"
         d="m 389.51073,245.38884 5.49375,0.0999 9.27424,12.80108 0,-13.19294 4.35675,0.0308 0.21506,17.86462 -5.35554,0.13063 -10.18861,-13.32357 0.26125,13.06232 -3.87252,0.023 z"
         id="path4721"
         inkscape:connector-curvature="0"
         sodipodi:nodetypes="ccccccccccc" />
      <path
         style="fill:#f5deb3;fill-opacity:1;fill-rule:evenodd;stroke:none;stroke-width:0.13414495;stroke-linecap:butt;stroke-linejoin:miter;stroke-miterlimit:4;stroke-dasharray:none;stroke-opacity:1"
         d="m 410.46419,245.31202 18.81732,-0.0538 0.0769,3.11193 -7.44552,0.12289 0.23057,14.49917 -4.80238,0.13062 0,-14.76041 -6.92303,-0.13063 z"
         id="path4723"
         inkscape:connector-curvature="0"
         sodipodi:nodetypes="ccccccccc" />
      <path
         id="path4725"
         transform="matrix(0.67085243,0,0,0.67059699,199.11509,224.46752)"
         d="m 356.64453,31.541016 -15.38086,25.908203 7.20313,0 3.89453,-6.429688 14.01953,0.390625 3.05078,5.972656 7.04102,-0.06641 -13.59766,-25.77539 -6.23047,0 z m 2.33789,5.259765 5.83985,10.324219 -11.09766,0 5.25781,-10.324219 z"
         style="fill:#f5deb3;fill-opacity:1;fill-rule:evenodd;stroke:none;stroke-width:0.20000002;stroke-linecap:butt;stroke-linejoin:miter;stroke-miterlimit:4;stroke-dasharray:none;stroke-opacity:1"
         inkscape:connector-curvature="0" />
      <path
         style="fill:#f5deb3;fill-opacity:1;fill-rule:evenodd;stroke:none;stroke-width:0.13414495;stroke-linecap:butt;stroke-linejoin:miter;stroke-miterlimit:4;stroke-dasharray:none;stroke-opacity:1"
         d="m 535.1958,307.1755 2.71043,0.0653 -0.0653,2.18794 -2.67778,-0.0653 z"
         id="path4729"
         inkscape:connector-curvature="0"
         sodipodi:nodetypes="ccccc" />
      <path
         style="fill:#f5deb3;fill-opacity:1;fill-rule:evenodd;stroke:none;stroke-width:0.13414495;stroke-linecap:butt;stroke-linejoin:miter;stroke-miterlimit:4;stroke-dasharray:none;stroke-opacity:1"
         d="m 521.44771,295.648 3.52683,-0.13062 0.0326,9.92736 c 0.87732,2.469 4.539,1.6221 8.03333,1.82876 l -0.0327,2.22059 -6.10663,-0.098 c -3.39331,0.24532 -5.29593,-2.06035 -5.58414,-4.47384 z"
         id="path4731"
         inkscape:connector-curvature="0"
         sodipodi:nodetypes="cccccccc" />
      <path
         style="fill:#f5deb3;fill-opacity:1;fill-rule:evenodd;stroke:none;stroke-width:0.20121741;stroke-linecap:butt;stroke-linejoin:miter;stroke-miterlimit:4;stroke-dasharray:none;stroke-opacity:1"
         d="m 516.38606,307.04488 2.77574,0 10e-6,2.38387 -2.77575,0.0327 z"
         id="path4733"
         inkscape:connector-curvature="0"
         sodipodi:nodetypes="ccccc" />
      <path
         id="path4735"
         transform="matrix(0.67085243,0,0,0.67059699,199.11509,224.46752)"
         d="m 445.04492,106.14453 0.19336,20.30664 5.06445,0.14649 0,-7.79102 6.61915,0 5.84179,7.69336 5.54883,0.0488 -6.18164,-8.52149 c 1.94219,-0.68882 4.06198,-0.66683 5.11133,-4.09179 0.40703,-4.7946 -1.19337,-6.64052 -5.8418,-7.74219 l -16.35547,-0.0488 z m 13.92188,3.45703 c 2.68011,0.45952 2.78974,1.24357 3.16406,2.72852 0.009,1.58939 -1.45958,2.20705 -2.58008,2.67773 l -9.10351,-0.0488 -0.0488,-5.21093 8.56836,-0.14649 z"
         style="fill:#f5deb3;fill-opacity:1;fill-rule:evenodd;stroke:none;stroke-width:0.20000002;stroke-linecap:butt;stroke-linejoin:miter;stroke-miterlimit:4;stroke-dasharray:none;stroke-opacity:1"
         inkscape:connector-curvature="0" />
      <path
         style="fill:#f5deb3;fill-opacity:1;fill-rule:evenodd;stroke:none;stroke-width:0.13414495;stroke-linecap:butt;stroke-linejoin:miter;stroke-miterlimit:4;stroke-dasharray:none;stroke-opacity:1"
         d="m 493.20045,307.04488 2.80839,0 10e-6,2.25324 -2.84106,-0.0326 z"
         id="path4739"
         inkscape:connector-curvature="0"
         sodipodi:nodetypes="ccccc" />
      <path
         style="fill:#f5deb3;fill-opacity:1;fill-rule:evenodd;stroke:none;stroke-width:0.13414495;stroke-linecap:butt;stroke-linejoin:miter;stroke-miterlimit:4;stroke-dasharray:none;stroke-opacity:1"
         d="m 489.18379,295.77863 0.0326,2.31855 -10.22126,0.0654 c -1.3561,0.35456 -1.79219,1.08793 -1.56306,1.98888 -0.13247,1.68903 4.98119,0.89181 9.727,1.24405 4.77713,2.20243 3.32063,7.32711 -1.40419,7.96801 l -11.46219,-0.13061 0,-2.15528 10.97235,0.0326 c 1.98408,-1.59602 1.67055,-2.43612 -0.16328,-3.29823 l -8.35988,-0.26129 c -5.62839,-2.22536 -3.27419,-7.60636 1.11029,-7.60881 z"
         id="path4741"
         inkscape:connector-curvature="0"
         sodipodi:nodetypes="ccccccccccccc" />
      <path
         id="path4743"
         transform="matrix(0.67085243,0,0,0.67059699,199.11509,224.46752)"
         d="m 376.50586,66.992188 -10.70898,0.195312 -21.8086,55.51367 -0.77734,-5.45312 -14.60352,0.19531 c -9.01477,0.21184 -10.13758,-4.83993 -10.9043,-10.12891 l 0.58399,-39.736325 -11.29297,0 -0.13867,37.666015 c -0.64208,9.28385 4.17934,19.84191 16.29883,20.74609 l 31.34961,0.0234 5.25586,-14.02539 22.97656,-0.19531 4.79687,15 12.92188,0 -23.94922,-59.800782 z m -5.64648,13.050781 8.5664,22.011721 -16.16016,0.38867 7.59376,-22.400391 z"
         style="fill:#f5deb3;fill-opacity:1;fill-rule:evenodd;stroke:none;stroke-width:0.20000002;stroke-linecap:butt;stroke-linejoin:miter;stroke-miterlimit:4;stroke-dasharray:none;stroke-opacity:1"
         inkscape:connector-curvature="0" />
      <path
         style="fill:#f5deb3;fill-opacity:1;fill-rule:evenodd;stroke:none;stroke-width:0.13414495;stroke-linecap:butt;stroke-linejoin:miter;stroke-miterlimit:4;stroke-dasharray:none;stroke-opacity:1"
         d="m 377.23973,269.52337 7.18427,0.13062 -0.18473,24.19154 c -0.38323,11.7517 7.31508,8.69849 17.29637,8.98675 l 0.13062,6.53116 -13.36838,0.0541 c -8.24727,-0.77017 -11.35534,-8.25452 -11.21119,-13.47931 z"
         id="path4747"
         inkscape:connector-curvature="0"
         sodipodi:nodetypes="cccccccc" />
      <path
         style="fill:#f5deb3;fill-opacity:1;fill-rule:evenodd;stroke:none;stroke-width:0.13414495;stroke-linecap:butt;stroke-linejoin:miter;stroke-miterlimit:4;stroke-dasharray:none;stroke-opacity:1"
         d="m 362.47931,269.78462 7.44552,0 -0.26124,39.31758 -7.44553,0.13061 z"
         id="path4749"
         inkscape:connector-curvature="0"
         sodipodi:nodetypes="ccccc" />
      <path
         style="fill:#f5deb3;fill-opacity:1;fill-rule:evenodd;stroke:none;stroke-width:0.13414495;stroke-linecap:butt;stroke-linejoin:miter;stroke-miterlimit:4;stroke-dasharray:none;stroke-opacity:1"
         d="m 356.07877,269.39275 c 0.26125,0.52249 0.26125,7.18427 0.26125,7.18427 l -14.42266,0.0924 c -4.84944,0.99299 -6.0547,5.11109 -6.71589,8.23855 -0.62654,5.88735 -1.044,17.29594 6.24751,17.6631 l 14.76042,-0.26124 -0.13063,6.7924 -14.76042,0.13062 c -8.99264,-0.30317 -12.92616,-6.3882 -14.62979,-15.02166 -0.98871,-11.73485 2.23658,-23.18026 15.13915,-24.51889 z"
         id="path4751"
         inkscape:connector-curvature="0"
         sodipodi:nodetypes="ccccccccccc" />
      <path
         id="path4753"
         transform="matrix(0.67085243,0,0,0.67059699,199.11509,224.46752)"
         d="m 166.92969,67.359375 c 0,0 -28.16827,0.02344 -29.53125,0.02344 l 0.39062,59.410155 10.9043,0 -0.19531,-23.57031 13.24023,0 12.20899,23.59375 12.51953,0.16992 -13.04492,-25.12695 c 6.97904,-2.895392 10.47981,-7.49245 10.70898,-15.582033 1.65956,-11.526446 -6.55713,-19.376859 -17.20117,-18.917969 z m -17.98633,10.65625 16.06836,0.08008 c 3.42481,-0.364093 8.47677,2.162589 7.88281,8.650391 0.56215,9.378315 -13.68912,6.501775 -23.92578,6.738281 l -0.0254,-15.46875 z"
         style="fill:#f5deb3;fill-opacity:1;fill-rule:evenodd;stroke:none;stroke-width:0.20000002;stroke-linecap:butt;stroke-linejoin:miter;stroke-miterlimit:4;stroke-dasharray:none;stroke-opacity:1"
         inkscape:connector-curvature="0" />
      <path
         style="fill:#f5deb3;fill-opacity:1;fill-rule:evenodd;stroke:none;stroke-width:0.13414495;stroke-linecap:butt;stroke-linejoin:miter;stroke-miterlimit:4;stroke-dasharray:none;stroke-opacity:1"
         d="m 284.29013,269.65399 0.0765,6.79241 -13.71543,0 c -4.7179,0.76828 -6.76941,4.20293 -7.3149,9.14362 l 21.03033,0.26125 -0.13062,7.05365 -21.16096,-0.13063 c 0.39859,5.35121 2.32554,9.15432 6.53116,9.66612 l 14.76042,0 0,6.9837 -10.76521,0.0158 c -15.3527,0.88675 -19.34222,-11.03524 -19.01687,-21.23747 0.55903,-13.28565 8.48967,-17.80427 14.77241,-18.61843 z"
         id="path4757"
         inkscape:connector-curvature="0"
         sodipodi:nodetypes="cccccccccccccc" />
    </g>
  </g>
</svg>
